<?xml version="1.0" encoding="utf-8"?>
<!-- Generator: Adobe Illustrator 19.2.0, SVG Export Plug-In . SVG Version: 6.00 Build 0)  -->
<svg version="1.1" id="Layer_1" xmlns:sketch="http://www.bohemiancoding.com/sketch/ns"
	 xmlns="http://www.w3.org/2000/svg" xmlns:xlink="http://www.w3.org/1999/xlink" x="0px" y="0px" viewBox="0 0 321 145"
	 style="enable-background:new 0 0 321 145;" xml:space="preserve">
<style type="text/css">
	.st0{fill:#323232;}
	.st1{fill:none;stroke:#323232;stroke-width:4.1769;}
	.st2{fill:none;stroke:#323232;stroke-width:4.183;}
</style>
<title>Vector 4</title>
<desc>Created with Sketch.</desc>
<g id="Page-2" sketch:type="MSPage">
	<g id="FABcube-2" transform="translate(145.000000, 10.000000)" sketch:type="MSLayerGroup">
		<g id="g2483" transform="translate(15.022091, 14.555556)" sketch:type="MSShapeGroup">
			<path id="path38" class="st0" d="M-97.6,89.1V77.1c0.4-0.2,0.8-0.3,1.1-0.5c5.9-3.4,6.5-13.2,1.4-22c-5.1-8.7-14-13.1-19.9-9.7
				c-5.9,3.4-6.5,13.2-1.4,22c0.8,1.3,1.6,2.5,2.5,3.6v9.4l-12.4-7.1V27.4l-4.5-2.6C-134.8,32-137,40.2-137,49
				c0,27.9,22.3,50.5,50,51.4v-5.2L-97.6,89.1z"/>
			<path id="path40" class="st0" d="M-45.3,27.4v14.3l-8.6,4.8c-0.6-0.7-1.4-1.3-2.2-1.8c-5.9-3.4-14.8,1-19.9,9.7
				c-5.1,8.8-4.5,18.6,1.4,22c5.9,3.4,14.8-1,19.9-9.7c1.1-1.9,1.9-3.8,2.5-5.8l6.9-4v15.7l-39.4,22.6v5.2c27.8-0.9,50-23.6,50-51.4
				c0-8.8-2.2-17-6.1-24.2L-45.3,27.4z"/>
			<path id="path42" class="st0" d="M-113.5,18l7.7,4.6c-0.3,0.9-0.4,1.7-0.4,2.7c0,6.8,8.1,12.3,18.1,12.3c10,0,18.1-5.5,18.1-12.3
				c0-6.8-8.1-12.3-18.1-12.3c-2.2,0-4.4,0.3-6.3,0.8l-5.9-3.4L-87,2.4l38.5,22.8c1.7-1,3.2-1.9,4.5-2.7C-52.9,7.8-68.8-2-87-2
				c-18.2,0-34.1,9.8-43.1,24.5c1.4,0.8,2.9,1.7,4.5,2.7L-113.5,18z"/>
		</g>
		<ellipse id="Oval-1" sketch:type="MSShapeGroup" class="st1" cx="-70.8" cy="63.8" rx="51.2" ry="51.2">
		</ellipse>
		<path id="Oval-2" sketch:type="MSShapeGroup" class="st2" d="M160,47.5c0-21-205.5-49.7-231.5-49.7c-37.8,0-65.7,28.9-65.7,67.2
			s28.9,64,66.7,64c25.4,0,142.6-31.3,142.6-45.1"/>
		<path id="fab-lab-siegen" sketch:type="MSShapeGroup" class="st0" d="M5.4,57.3h6V54H1.8v23.1h3.6v-9.5h4.7v-3.3H5.4V57.3z
			 M22.2,54h-5.3l-3.7,23.1h3.3l0.6-4.2h4.5l0.6,4.2h3.7L22.2,54z M19.3,58l1.7,11.7h-3.5L19.3,58z M34.4,54h-5.5v23.1h5.7
			c3.6,0,5.5-1.9,5.5-5.5v-1.9c0-2.4-0.8-4.2-2.7-4.9c1.6-0.8,2.3-2.3,2.3-4.7v-0.8C39.7,55.7,38.1,54,34.4,54L34.4,54z M34.1,66.7
			c1.7,0,2.3,0.7,2.3,2.8v2c0,1.7-0.7,2.3-1.9,2.3h-2.1v-7.1H34.1z M34.3,57.3c1.3,0,1.8,0.7,1.8,2.4v1.3c0,1.8-0.8,2.4-2.2,2.4
			h-1.4v-6.1H34.3z M50.1,77.1h9.6v-3.3h-6V54h-3.6V77.1z M70.7,54h-5.3l-3.7,23.1H65l0.6-4.2h4.5l0.6,4.2h3.7L70.7,54z M67.9,58
			l1.7,11.7h-3.5L67.9,58z M82.9,54h-5.5v23.1h5.7c3.6,0,5.5-1.9,5.5-5.5v-1.9c0-2.4-0.8-4.2-2.7-4.9c1.6-0.8,2.3-2.3,2.3-4.7v-0.8
			C88.3,55.7,86.7,54,82.9,54L82.9,54z M82.7,66.7c1.6,0,2.3,0.7,2.3,2.8v2c0,1.7-0.7,2.3-1.9,2.3h-2.1v-7.1H82.7z M82.8,57.3
			c1.3,0,1.8,0.7,1.8,2.4v1.3c0,1.8-0.8,2.4-2.2,2.4h-1.4v-6.1H82.8z M103.5,53.7c-3.5,0-5.1,2.2-5.1,5.8c0,6.5,7.7,7,7.7,12.1
			c0,2.1-0.9,3.3-2.7,3.3c-1.8,0-2.7-1.2-2.7-3.3v-1.5h-2.4v1.3c0,3.5,1.6,5.8,5.2,5.8c3.5,0,5.2-2.3,5.2-5.8c0-6.5-7.8-7-7.8-12.2
			c0-2,0.8-3.3,2.6-3.3c1.8,0,2.6,1.2,2.6,3.3v0.8h2.4v-0.6C108.7,56,107,53.7,103.5,53.7L103.5,53.7z M112.3,54v23.1h2.6V54H112.3z
			 M121.5,64.2v-7.9h6.9V54h-9.5v23.1h9.5v-2.3h-6.9v-8.2h5.6v-2.3H121.5z M137.1,53.7c-3.5,0-5.2,2.3-5.2,5.8v11.9
			c0,3.5,1.6,5.8,5.2,5.8c3.6,0,5.2-2.3,5.2-5.8v-6.8h-4.8V67h2.4v4.6c0,2.1-0.8,3.3-2.7,3.3c-1.8,0-2.7-1.3-2.7-3.3V59.4
			c0-2.1,0.9-3.3,2.7-3.3c1.9,0,2.7,1.3,2.7,3.3v2.1h2.4v-2C142.3,56,140.7,53.7,137.1,53.7L137.1,53.7z M148.7,64.2v-7.9h6.9V54
			h-9.5v23.1h9.5v-2.3h-6.9v-8.2h5.6v-2.3H148.7z M161.6,58.4l5.9,18.7h2.7V54H168v16.7L162.6,54h-3.3v23.1h2.3V58.4z"/>
	</g>
</g>
</svg>
